<svg xmlns="http://www.w3.org/2000/svg" version="1.1" baseProfile="full" width="100%" height="100%" viewBox="0 0 1400 800">
<path fill='#ebf7f6' d='M0 0h1440v560H0z'/>
<path d="M512 511.97910585m-8.35765925 0a8.35765925 8.35765925 0 1 0 16.7153185 0 8.35765925 8.35765925 0 1 0-16.7153185 0Z M558.85512722 511.97910585c0-6.56076251-7.70994064-12.24397081-19.69273464-15.68105818 3.01920441-12.09771175 1.95360286-21.61499626-3.72960544-24.89537752-5.69365538-3.28038126-14.46919758 0.55369492-23.43278714 9.21431935-8.96358954-8.66062441-17.73913177-12.49470058-23.43278715-9.21431935-5.68320827 3.28038126-6.74880983 12.80811281-3.72960544 24.89537752C472.85481343 499.73513505 465.14487278 505.41834333 465.14487278 511.97910585S472.85481343 524.22307666 484.83760741 527.66016404c-3.01920441 12.08726471-1.95360286 21.61499626 3.72960545 24.89537752 1.39990791 0.81487177 2.98786318 1.2118606 4.72207748 1.21186058 4.14748841 0 9.17253103-2.27746214 14.62590369-6.70702156 1.35811963-1.10738986 2.72668633-2.36103874 4.08480597-3.67737006 1.35811963 1.31633133 2.72668633 2.56998022 4.08480597 3.67737006 5.45337266 4.42955942 10.46796822 6.70702156 14.62590369 6.70702156 1.7342143 0 3.32216956-0.39698881 4.72207749-1.21186058 5.68320827-3.28038126 6.74880983-12.79766573 3.72960544-24.89537753 11.98279396-3.43708738 19.69273462-9.12029566 19.69273463-15.68105818zM533.39560769 474.93378119c3.68781714 2.1312031 4.46090063 9.85159084 1.83868506 20.3509003-3.83407617-0.87755423-8.01290581-1.53571989-12.46335938-1.94315578-2.58042729-3.64602886-5.24443118-6.93685719-7.91888214-9.82024964 6.18466785-5.98617345 11.93055859-9.23521349 15.87955257-9.23521347 1.00291913-0.01044706 1.90136749 0.2089415 2.66400389 0.64771859zM525.05884259 519.52189334c-1.44169621 2.50729778-2.96696903 4.91012481-4.52358308 7.20848111-2.72668633 0.2089415-5.56829047 0.3238593-8.53525951 0.32385929-2.95652195 0-5.79812611-0.11491779-8.52481244-0.32385929-1.5670611-2.29835629-3.08188685-4.71163041-4.52358307-7.20848111-1.47303743-2.55953316-2.78936878-5.07727799-3.98033524-7.54278749 1.19096644-2.46550949 2.50729778-4.98325433 3.98033522-7.54278749 1.47303743-2.55953316 2.99831026-4.95191312 4.53403016-7.21892818 2.72668633-0.2089415 5.56829047-0.3238593 8.52481245-0.32385929 2.95652195 0 5.79812611 0.11491779 8.52481243 0.32385929 1.53571989 2.25656799 3.06099271 4.65939503 4.53403014 7.20848111 1.47303743 2.55953316 2.78936878 5.07727799 3.98033522 7.54278749-1.20141351 2.47595655-2.51774483 4.9937014-3.99078228 7.55323455z m6.14287956-2.75802756c1.1700723 2.7789217 2.1312031 5.44292559 2.92518073 7.99201166-2.60132144 0.58503615-5.40113731 1.0864957-8.38900047 1.46259038 0.9715779-1.51482576 1.92226162-3.06099271 2.8520512-4.65939506 0.91934252-1.6088494 1.78644967-3.20725175 2.61176854-4.79520698zM512 537.54309611c-1.84913211-2.0058382-3.66692301-4.18927669-5.45337266-6.53986837 1.78644967 0.0835766 3.60424055 0.13581197 5.45337266 0.13581196 1.84913211 0 3.66692301-0.05223536 5.45337266-0.13581198-1.78644967 2.35059167-3.60424055 4.53403013-5.45337266 6.53986839zM498.26209759 526.21846782c-2.98786318-0.37609466-5.77723197-0.87755423-8.38900049-1.46259038 0.79397763-2.54908607 1.75510843-5.21308996 2.92518075-7.99201166 0.82531882 1.58795526 1.68197893 3.18635759 2.61176851 4.79520698 0.92978961 1.58795526 1.8804733 3.13412223 2.85205124 4.65939506zM492.79827785 507.19434592c-1.1700723-2.7789217-2.1312031-5.44292559-2.92518073-7.99201165 2.60132144-0.58503615 5.39069021-1.0864957 8.37855341-1.46259036-0.96113083 1.50437866-1.92226162 3.05054563-2.84160414 4.65939501-0.91934252 1.6088494-1.78644967 3.20725175-2.61176854 4.79520701zM512 486.41511559c1.8073438 1.95360286 3.6355818 4.15793548 5.44292559 6.55031544-1.78644967-0.0835766-3.59379349-0.13581197-5.44292559-0.13581196-1.84913211 0-3.65647593 0.05223536-5.44292559 0.13581196 1.8073438-2.39237996 3.6355818-4.5967126 5.44292559-6.55031544z m16.57950655 15.98402334c-0.92978961-1.59840233-1.8804733-3.14456931-2.84160414-4.65939503 2.98786318 0.37609466 5.77723197 0.87755423 8.3785534 1.46259037-0.79397763 2.54908607-1.75510843 5.21308996-2.92518071 7.99201166-0.81487177-1.58795526-1.68197893-3.18635759-2.61176855-4.795207zM490.60439231 474.93378119c0.75218933-0.4387771 1.65063771-0.6477186 2.67445096-0.64771859 3.94899399 0 9.68443767 3.24904003 15.86910552 9.23521347-2.67445097 2.88339246-5.33845486 6.18466785-7.91888217 9.82024965-4.44000649 0.40743589-8.62928318 1.06560156-12.46335937 1.94315577-2.62221558-10.50975653-1.83868503-18.23014427 1.83868506-20.3509003zM469.21923168 511.97910585c0-4.26240622 6.29958566-8.79643641 16.7153185-11.76340541 1.15962522 3.76094665 2.67445097 7.70994064 4.54447724 11.76340543-1.85957919 4.05346474-3.384852 8.00245875-4.54447723 11.7634054-10.41573285-2.96696903-16.71531851-7.51144624-16.71531851-11.76340542z m36.12598212 31.9158113c-6.23690321 5.06683094-11.60669929 6.93685719-14.74082149 5.13996044-3.68781714-2.1312031-4.46090063-9.85159084-1.83868504-20.35090027 3.83407617 0.87755423 8.01290581 1.53571989 12.46335936 1.94315577 2.54908607 3.60424055 5.21308996 6.90551597 7.91888214 9.84114375-1.26409597 1.22230765-2.5281919 2.39237996-3.80273497 3.42664031z m28.05039389 5.13996044c-3.12367516 1.8073438-8.5039183-0.06268244-14.74082151-5.13996044-1.26409597-1.03426034-2.53863901-2.20433264-3.81318204-3.42664031 2.71623926-2.93562781 5.36979609-6.23690321 7.91888219-9.84114375 4.44000649-0.40743589 8.62928318-1.06560156 12.46335934-1.95360285 2.63266266 10.50975653 1.84913211 18.23014427-1.82823798 20.36134735z m4.68028918-25.29236632c-1.15962522-3.76094665-2.67445097-7.70994064-4.54447721-11.76340542 1.85957919-4.05346474 3.384852-8.00245875 4.54447721-11.76340541 10.41573285 2.97741613 16.71531851 7.51144624 16.71531855 11.76340541-0.01044706 4.25195915-6.31003274 8.79643641-16.71531853 11.76340542z" fill="#61DAFB" p-id="1320">
    <animateTransform attributeType="XML" attributeName="transform" begin="0s" dur="35s" type="rotate" from="300 150 350" to="300 450 450" repeatCount="indefinite"/>
</path>

 <rect x="400" y="600" rx="40" ry="40" width="100" height="100" stroke="rgb(129, 201, 149)" fill="rgb(129, 201, 149)">
    <animateTransform attributeType="XML" attributeName="transform" begin="0s" dur="35s" type="rotate" from="-30 550 750" to="330 550 750" repeatCount="indefinite"/>
  </rect>

  <rect x="1300" y="400" rx="40" ry="40" width="300" height="300" stroke="rgb(129, 201, 149)" fill="rgb(129, 201, 149)">
    <animateTransform attributeType="XML" attributeName="transform" begin="0s" dur="135s" type="rotate" from="0 1850 350" to="360 1450 550" repeatCount="indefinite"/>
  </rect>
  <path d="M 100 350 A 150 150 0 1 1 400 350 Q400 370 380 370 L 250 370 L 120 370 Q100 370 100 350" stroke="rgb(253, 214, 99)" fill="rgb(253, 214, 99)">
    <animateMotion path="M 800 -200 L 800 -300 L 800 -200" dur="20s" begin="0s" repeatCount="indefinite"/>
    <animateTransform attributeType="XML" attributeName="transform" begin="0s" dur="310s" type="rotate" values="0 210 530 ; -30 210 530 ; 0 210 530" keyTimes="0 ; 0.5 ; 1" repeatCount="indefinite"/>
  </path>

  <circle cx="200" cy="150" r="20" stroke="#1a73e8" fill="#1a73e8">
    <animateMotion path="M 0 0 L 40 20 Z" dur="15s" repeatCount="indefinite"/>
  </circle>

  <circle cx="300" cy="250" r="10" stroke="#93c2e6" fill="#93c2e6">
    <animateMotion path="M 20 20 L 10 50 Z" dur="12s" repeatCount="indefinite"/>
  </circle>


  <path d="M 100 350 A 40 40 0 1 1 180 350 L 180 430 A 40 40 0 1 1 100 430 Z" stroke="rgb(241, 243, 244)" fill="rgb(241, 243, 244)">
    <animateMotion path="M 140 90 L 180 360 L 140 390" dur="20s" begin="0s" repeatCount="indefinite"/>
    <animateTransform attributeType="XML" attributeName="transform" begin="0s" dur="30s" type="rotate" values="0 140 390; -60 140 390; 0 140 390" keyTimes="0 ; 0.5 ; 1" repeatCount="indefinite"/>
  </path>

 

<defs>
<mask id='SvgjsMask1023'>
<path fill='#fff' d='M0 0h1440v560H0z'/></mask></defs>

</svg>
